<?xml version="1.0" encoding="utf-8" standalone="no"?>
<!DOCTYPE svg PUBLIC "-//W3C//DTD SVG 1.1//EN"
  "http://www.w3.org/Graphics/SVG/1.1/DTD/svg11.dtd">
<svg xmlns:xlink="http://www.w3.org/1999/xlink" width="955.150937pt" height="824.664503pt" viewBox="0 0 955.150937 824.664503" xmlns="http://www.w3.org/2000/svg" version="1.1">
 <metadata>
  <rdf:RDF xmlns:dc="http://purl.org/dc/elements/1.1/" xmlns:cc="http://creativecommons.org/ns#" xmlns:rdf="http://www.w3.org/1999/02/22-rdf-syntax-ns#">
   <cc:Work>
    <dc:type rdf:resource="http://purl.org/dc/dcmitype/StillImage"/>
    <dc:date>2025-08-29T00:46:49.843821</dc:date>
    <dc:format>image/svg+xml</dc:format>
    <dc:creator>
     <cc:Agent>
      <dc:title>Matplotlib v3.10.5, https://matplotlib.org/</dc:title>
     </cc:Agent>
    </dc:creator>
   </cc:Work>
  </rdf:RDF>
 </metadata>
 <defs>
  <style type="text/css">*{stroke-linejoin: round; stroke-linecap: butt}</style>
 </defs>
 <g id="figure_1">
  <g id="patch_1">
   <path d="M 0 824.664503 
L 955.150937 824.664503 
L 955.150937 0 
L 0 0 
z
" style="fill: #f0f0f0"/>
  </g>
  <g id="axes_1">
   <g id="patch_2">
    <path d="M 56.590938 386.358261 
L 455.209119 386.358261 
L 455.209119 82.08 
L 56.590938 82.08 
z
" style="fill: #f0f0f0"/>
   </g>
   <g id="matplotlib.axis_1">
    <g id="xtick_1">
     <g id="line2d_1"/>
     <g id="text_1">
      <!-- Muzan -->
      <g transform="translate(79.279067 404.331806) rotate(-10) scale(0.11 -0.11)">
       <defs>
        <path id="DejaVuSans-4d" d="M 628 4666 
L 1569 4666 
L 2759 1491 
L 3956 4666 
L 4897 4666 
L 4897 0 
L 4281 0 
L 4281 4097 
L 3078 897 
L 2444 897 
L 1241 4097 
L 1241 0 
L 628 0 
L 628 4666 
z
" transform="scale(0.015625)"/>
        <path id="DejaVuSans-75" d="M 544 1381 
L 544 3500 
L 1119 3500 
L 1119 1403 
Q 1119 906 1312 657 
Q 1506 409 1894 409 
Q 2359 409 2629 706 
Q 2900 1003 2900 1516 
L 2900 3500 
L 3475 3500 
L 3475 0 
L 2900 0 
L 2900 538 
Q 2691 219 2414 64 
Q 2138 -91 1772 -91 
Q 1169 -91 856 284 
Q 544 659 544 1381 
z
M 1991 3584 
L 1991 3584 
z
" transform="scale(0.015625)"/>
        <path id="DejaVuSans-7a" d="M 353 3500 
L 3084 3500 
L 3084 2975 
L 922 459 
L 3084 459 
L 3084 0 
L 275 0 
L 275 525 
L 2438 3041 
L 353 3041 
L 353 3500 
z
" transform="scale(0.015625)"/>
        <path id="DejaVuSans-61" d="M 2194 1759 
Q 1497 1759 1228 1600 
Q 959 1441 959 1056 
Q 959 750 1161 570 
Q 1363 391 1709 391 
Q 2188 391 2477 730 
Q 2766 1069 2766 1631 
L 2766 1759 
L 2194 1759 
z
M 3341 1997 
L 3341 0 
L 2766 0 
L 2766 531 
Q 2569 213 2275 61 
Q 1981 -91 1556 -91 
Q 1019 -91 701 211 
Q 384 513 384 1019 
Q 384 1609 779 1909 
Q 1175 2209 1959 2209 
L 2766 2209 
L 2766 2266 
Q 2766 2663 2505 2880 
Q 2244 3097 1772 3097 
Q 1472 3097 1187 3025 
Q 903 2953 641 2809 
L 641 3341 
Q 956 3463 1253 3523 
Q 1550 3584 1831 3584 
Q 2591 3584 2966 3190 
Q 3341 2797 3341 1997 
z
" transform="scale(0.015625)"/>
        <path id="DejaVuSans-6e" d="M 3513 2113 
L 3513 0 
L 2938 0 
L 2938 2094 
Q 2938 2591 2744 2837 
Q 2550 3084 2163 3084 
Q 1697 3084 1428 2787 
Q 1159 2491 1159 1978 
L 1159 0 
L 581 0 
L 581 3500 
L 1159 3500 
L 1159 2956 
Q 1366 3272 1645 3428 
Q 1925 3584 2291 3584 
Q 2894 3584 3203 3211 
Q 3513 2838 3513 2113 
z
" transform="scale(0.015625)"/>
       </defs>
       <use xlink:href="#DejaVuSans-4d"/>
       <use xlink:href="#DejaVuSans-75" transform="translate(86.279297 0)"/>
       <use xlink:href="#DejaVuSans-7a" transform="translate(149.658203 0)"/>
       <use xlink:href="#DejaVuSans-61" transform="translate(202.148438 0)"/>
       <use xlink:href="#DejaVuSans-6e" transform="translate(263.427734 0)"/>
      </g>
     </g>
    </g>
    <g id="xtick_2">
     <g id="line2d_2"/>
     <g id="text_2">
      <!-- Tanjiro -->
      <g transform="translate(159.108493 404.294499) rotate(-10) scale(0.11 -0.11)">
       <defs>
        <path id="DejaVuSans-54" d="M -19 4666 
L 3928 4666 
L 3928 4134 
L 2272 4134 
L 2272 0 
L 1638 0 
L 1638 4134 
L -19 4134 
L -19 4666 
z
" transform="scale(0.015625)"/>
        <path id="DejaVuSans-6a" d="M 603 3500 
L 1178 3500 
L 1178 -63 
Q 1178 -731 923 -1031 
Q 669 -1331 103 -1331 
L -116 -1331 
L -116 -844 
L 38 -844 
Q 366 -844 484 -692 
Q 603 -541 603 -63 
L 603 3500 
z
M 603 4863 
L 1178 4863 
L 1178 4134 
L 603 4134 
L 603 4863 
z
" transform="scale(0.015625)"/>
        <path id="DejaVuSans-69" d="M 603 3500 
L 1178 3500 
L 1178 0 
L 603 0 
L 603 3500 
z
M 603 4863 
L 1178 4863 
L 1178 4134 
L 603 4134 
L 603 4863 
z
" transform="scale(0.015625)"/>
        <path id="DejaVuSans-72" d="M 2631 2963 
Q 2534 3019 2420 3045 
Q 2306 3072 2169 3072 
Q 1681 3072 1420 2755 
Q 1159 2438 1159 1844 
L 1159 0 
L 581 0 
L 581 3500 
L 1159 3500 
L 1159 2956 
Q 1341 3275 1631 3429 
Q 1922 3584 2338 3584 
Q 2397 3584 2469 3576 
Q 2541 3569 2628 3553 
L 2631 2963 
z
" transform="scale(0.015625)"/>
        <path id="DejaVuSans-6f" d="M 1959 3097 
Q 1497 3097 1228 2736 
Q 959 2375 959 1747 
Q 959 1119 1226 758 
Q 1494 397 1959 397 
Q 2419 397 2687 759 
Q 2956 1122 2956 1747 
Q 2956 2369 2687 2733 
Q 2419 3097 1959 3097 
z
M 1959 3584 
Q 2709 3584 3137 3096 
Q 3566 2609 3566 1747 
Q 3566 888 3137 398 
Q 2709 -91 1959 -91 
Q 1206 -91 779 398 
Q 353 888 353 1747 
Q 353 2609 779 3096 
Q 1206 3584 1959 3584 
z
" transform="scale(0.015625)"/>
       </defs>
       <use xlink:href="#DejaVuSans-54"/>
       <use xlink:href="#DejaVuSans-61" transform="translate(44.583984 0)"/>
       <use xlink:href="#DejaVuSans-6e" transform="translate(105.863281 0)"/>
       <use xlink:href="#DejaVuSans-6a" transform="translate(169.242188 0)"/>
       <use xlink:href="#DejaVuSans-69" transform="translate(197.025391 0)"/>
       <use xlink:href="#DejaVuSans-72" transform="translate(224.808594 0)"/>
       <use xlink:href="#DejaVuSans-6f" transform="translate(263.671875 0)"/>
      </g>
     </g>
    </g>
    <g id="xtick_3">
     <g id="line2d_3"/>
     <g id="text_3">
      <!-- Akaza -->
      <g transform="translate(240.198935 403.812489) rotate(-10) scale(0.11 -0.11)">
       <defs>
        <path id="DejaVuSans-41" d="M 2188 4044 
L 1331 1722 
L 3047 1722 
L 2188 4044 
z
M 1831 4666 
L 2547 4666 
L 4325 0 
L 3669 0 
L 3244 1197 
L 1141 1197 
L 716 0 
L 50 0 
L 1831 4666 
z
" transform="scale(0.015625)"/>
        <path id="DejaVuSans-6b" d="M 581 4863 
L 1159 4863 
L 1159 1991 
L 2875 3500 
L 3609 3500 
L 1753 1863 
L 3688 0 
L 2938 0 
L 1159 1709 
L 1159 0 
L 581 0 
L 581 4863 
z
" transform="scale(0.015625)"/>
       </defs>
       <use xlink:href="#DejaVuSans-41"/>
       <use xlink:href="#DejaVuSans-6b" transform="translate(68.408203 0)"/>
       <use xlink:href="#DejaVuSans-61" transform="translate(124.568359 0)"/>
       <use xlink:href="#DejaVuSans-7a" transform="translate(185.847656 0)"/>
       <use xlink:href="#DejaVuSans-61" transform="translate(238.337891 0)"/>
      </g>
     </g>
    </g>
    <g id="xtick_4">
     <g id="line2d_4"/>
     <g id="text_4">
      <!-- Yushiro -->
      <g transform="translate(316.854664 404.894399) rotate(-10) scale(0.11 -0.11)">
       <defs>
        <path id="DejaVuSans-59" d="M -13 4666 
L 666 4666 
L 1959 2747 
L 3244 4666 
L 3922 4666 
L 2272 2222 
L 2272 0 
L 1638 0 
L 1638 2222 
L -13 4666 
z
" transform="scale(0.015625)"/>
        <path id="DejaVuSans-73" d="M 2834 3397 
L 2834 2853 
Q 2591 2978 2328 3040 
Q 2066 3103 1784 3103 
Q 1356 3103 1142 2972 
Q 928 2841 928 2578 
Q 928 2378 1081 2264 
Q 1234 2150 1697 2047 
L 1894 2003 
Q 2506 1872 2764 1633 
Q 3022 1394 3022 966 
Q 3022 478 2636 193 
Q 2250 -91 1575 -91 
Q 1294 -91 989 -36 
Q 684 19 347 128 
L 347 722 
Q 666 556 975 473 
Q 1284 391 1588 391 
Q 1994 391 2212 530 
Q 2431 669 2431 922 
Q 2431 1156 2273 1281 
Q 2116 1406 1581 1522 
L 1381 1569 
Q 847 1681 609 1914 
Q 372 2147 372 2553 
Q 372 3047 722 3315 
Q 1072 3584 1716 3584 
Q 2034 3584 2315 3537 
Q 2597 3491 2834 3397 
z
" transform="scale(0.015625)"/>
        <path id="DejaVuSans-68" d="M 3513 2113 
L 3513 0 
L 2938 0 
L 2938 2094 
Q 2938 2591 2744 2837 
Q 2550 3084 2163 3084 
Q 1697 3084 1428 2787 
Q 1159 2491 1159 1978 
L 1159 0 
L 581 0 
L 581 4863 
L 1159 4863 
L 1159 2956 
Q 1366 3272 1645 3428 
Q 1925 3584 2291 3584 
Q 2894 3584 3203 3211 
Q 3513 2838 3513 2113 
z
" transform="scale(0.015625)"/>
       </defs>
       <use xlink:href="#DejaVuSans-59"/>
       <use xlink:href="#DejaVuSans-75" transform="translate(49.583984 0)"/>
       <use xlink:href="#DejaVuSans-73" transform="translate(112.962891 0)"/>
       <use xlink:href="#DejaVuSans-68" transform="translate(165.0625 0)"/>
       <use xlink:href="#DejaVuSans-69" transform="translate(228.441406 0)"/>
       <use xlink:href="#DejaVuSans-72" transform="translate(256.224609 0)"/>
       <use xlink:href="#DejaVuSans-6f" transform="translate(295.087891 0)"/>
      </g>
     </g>
    </g>
    <g id="xtick_5">
     <g id="line2d_5"/>
     <g id="text_5">
      <!-- Giyu -->
      <g transform="translate(403.534198 402.441374) rotate(-10) scale(0.11 -0.11)">
       <defs>
        <path id="DejaVuSans-47" d="M 3809 666 
L 3809 1919 
L 2778 1919 
L 2778 2438 
L 4434 2438 
L 4434 434 
Q 4069 175 3628 42 
Q 3188 -91 2688 -91 
Q 1594 -91 976 548 
Q 359 1188 359 2328 
Q 359 3472 976 4111 
Q 1594 4750 2688 4750 
Q 3144 4750 3555 4637 
Q 3966 4525 4313 4306 
L 4313 3634 
Q 3963 3931 3569 4081 
Q 3175 4231 2741 4231 
Q 1884 4231 1454 3753 
Q 1025 3275 1025 2328 
Q 1025 1384 1454 906 
Q 1884 428 2741 428 
Q 3075 428 3337 486 
Q 3600 544 3809 666 
z
" transform="scale(0.015625)"/>
        <path id="DejaVuSans-79" d="M 2059 -325 
Q 1816 -950 1584 -1140 
Q 1353 -1331 966 -1331 
L 506 -1331 
L 506 -850 
L 844 -850 
Q 1081 -850 1212 -737 
Q 1344 -625 1503 -206 
L 1606 56 
L 191 3500 
L 800 3500 
L 1894 763 
L 2988 3500 
L 3597 3500 
L 2059 -325 
z
" transform="scale(0.015625)"/>
       </defs>
       <use xlink:href="#DejaVuSans-47"/>
       <use xlink:href="#DejaVuSans-69" transform="translate(77.490234 0)"/>
       <use xlink:href="#DejaVuSans-79" transform="translate(105.273438 0)"/>
       <use xlink:href="#DejaVuSans-75" transform="translate(164.453125 0)"/>
      </g>
     </g>
    </g>
   </g>
   <g id="matplotlib.axis_2">
    <g id="ytick_1">
     <g id="line2d_6">
      <path d="M 56.590938 386.358261 
L 455.209119 386.358261 
" clip-path="url(#p7050efae88)" style="fill: none; stroke: #cbcbcb"/>
     </g>
     <g id="line2d_7"/>
     <g id="text_6">
      <!-- 0.0 -->
      <g transform="translate(35.5975 390.537401) scale(0.11 -0.11)">
       <defs>
        <path id="DejaVuSans-30" d="M 2034 4250 
Q 1547 4250 1301 3770 
Q 1056 3291 1056 2328 
Q 1056 1369 1301 889 
Q 1547 409 2034 409 
Q 2525 409 2770 889 
Q 3016 1369 3016 2328 
Q 3016 3291 2770 3770 
Q 2525 4250 2034 4250 
z
M 2034 4750 
Q 2819 4750 3233 4129 
Q 3647 3509 3647 2328 
Q 3647 1150 3233 529 
Q 2819 -91 2034 -91 
Q 1250 -91 836 529 
Q 422 1150 422 2328 
Q 422 3509 836 4129 
Q 1250 4750 2034 4750 
z
" transform="scale(0.015625)"/>
        <path id="DejaVuSans-2e" d="M 684 794 
L 1344 794 
L 1344 0 
L 684 0 
L 684 794 
z
" transform="scale(0.015625)"/>
       </defs>
       <use xlink:href="#DejaVuSans-30"/>
       <use xlink:href="#DejaVuSans-2e" transform="translate(63.623047 0)"/>
       <use xlink:href="#DejaVuSans-30" transform="translate(95.410156 0)"/>
      </g>
     </g>
    </g>
    <g id="ytick_2">
     <g id="line2d_8">
      <path d="M 56.590938 330.718807 
L 455.209119 330.718807 
" clip-path="url(#p7050efae88)" style="fill: none; stroke: #cbcbcb"/>
     </g>
     <g id="line2d_9"/>
     <g id="text_7">
      <!-- 0.1 -->
      <g transform="translate(35.5975 334.897948) scale(0.11 -0.11)">
       <defs>
        <path id="DejaVuSans-31" d="M 794 531 
L 1825 531 
L 1825 4091 
L 703 3866 
L 703 4441 
L 1819 4666 
L 2450 4666 
L 2450 531 
L 3481 531 
L 3481 0 
L 794 0 
L 794 531 
z
" transform="scale(0.015625)"/>
       </defs>
       <use xlink:href="#DejaVuSans-30"/>
       <use xlink:href="#DejaVuSans-2e" transform="translate(63.623047 0)"/>
       <use xlink:href="#DejaVuSans-31" transform="translate(95.410156 0)"/>
      </g>
     </g>
    </g>
    <g id="ytick_3">
     <g id="line2d_10">
      <path d="M 56.590938 275.079354 
L 455.209119 275.079354 
" clip-path="url(#p7050efae88)" style="fill: none; stroke: #cbcbcb"/>
     </g>
     <g id="line2d_11"/>
     <g id="text_8">
      <!-- 0.2 -->
      <g transform="translate(35.5975 279.258495) scale(0.11 -0.11)">
       <defs>
        <path id="DejaVuSans-32" d="M 1228 531 
L 3431 531 
L 3431 0 
L 469 0 
L 469 531 
Q 828 903 1448 1529 
Q 2069 2156 2228 2338 
Q 2531 2678 2651 2914 
Q 2772 3150 2772 3378 
Q 2772 3750 2511 3984 
Q 2250 4219 1831 4219 
Q 1534 4219 1204 4116 
Q 875 4013 500 3803 
L 500 4441 
Q 881 4594 1212 4672 
Q 1544 4750 1819 4750 
Q 2544 4750 2975 4387 
Q 3406 4025 3406 3419 
Q 3406 3131 3298 2873 
Q 3191 2616 2906 2266 
Q 2828 2175 2409 1742 
Q 1991 1309 1228 531 
z
" transform="scale(0.015625)"/>
       </defs>
       <use xlink:href="#DejaVuSans-30"/>
       <use xlink:href="#DejaVuSans-2e" transform="translate(63.623047 0)"/>
       <use xlink:href="#DejaVuSans-32" transform="translate(95.410156 0)"/>
      </g>
     </g>
    </g>
    <g id="ytick_4">
     <g id="line2d_12">
      <path d="M 56.590938 219.439901 
L 455.209119 219.439901 
" clip-path="url(#p7050efae88)" style="fill: none; stroke: #cbcbcb"/>
     </g>
     <g id="line2d_13"/>
     <g id="text_9">
      <!-- 0.3 -->
      <g transform="translate(35.5975 223.619041) scale(0.11 -0.11)">
       <defs>
        <path id="DejaVuSans-33" d="M 2597 2516 
Q 3050 2419 3304 2112 
Q 3559 1806 3559 1356 
Q 3559 666 3084 287 
Q 2609 -91 1734 -91 
Q 1441 -91 1130 -33 
Q 819 25 488 141 
L 488 750 
Q 750 597 1062 519 
Q 1375 441 1716 441 
Q 2309 441 2620 675 
Q 2931 909 2931 1356 
Q 2931 1769 2642 2001 
Q 2353 2234 1838 2234 
L 1294 2234 
L 1294 2753 
L 1863 2753 
Q 2328 2753 2575 2939 
Q 2822 3125 2822 3475 
Q 2822 3834 2567 4026 
Q 2313 4219 1838 4219 
Q 1578 4219 1281 4162 
Q 984 4106 628 3988 
L 628 4550 
Q 988 4650 1302 4700 
Q 1616 4750 1894 4750 
Q 2613 4750 3031 4423 
Q 3450 4097 3450 3541 
Q 3450 3153 3228 2886 
Q 3006 2619 2597 2516 
z
" transform="scale(0.015625)"/>
       </defs>
       <use xlink:href="#DejaVuSans-30"/>
       <use xlink:href="#DejaVuSans-2e" transform="translate(63.623047 0)"/>
       <use xlink:href="#DejaVuSans-33" transform="translate(95.410156 0)"/>
      </g>
     </g>
    </g>
    <g id="ytick_5">
     <g id="line2d_14">
      <path d="M 56.590938 163.800447 
L 455.209119 163.800447 
" clip-path="url(#p7050efae88)" style="fill: none; stroke: #cbcbcb"/>
     </g>
     <g id="line2d_15"/>
     <g id="text_10">
      <!-- 0.4 -->
      <g transform="translate(35.5975 167.979588) scale(0.11 -0.11)">
       <defs>
        <path id="DejaVuSans-34" d="M 2419 4116 
L 825 1625 
L 2419 1625 
L 2419 4116 
z
M 2253 4666 
L 3047 4666 
L 3047 1625 
L 3713 1625 
L 3713 1100 
L 3047 1100 
L 3047 0 
L 2419 0 
L 2419 1100 
L 313 1100 
L 313 1709 
L 2253 4666 
z
" transform="scale(0.015625)"/>
       </defs>
       <use xlink:href="#DejaVuSans-30"/>
       <use xlink:href="#DejaVuSans-2e" transform="translate(63.623047 0)"/>
       <use xlink:href="#DejaVuSans-34" transform="translate(95.410156 0)"/>
      </g>
     </g>
    </g>
    <g id="ytick_6">
     <g id="line2d_16">
      <path d="M 56.590938 108.160994 
L 455.209119 108.160994 
" clip-path="url(#p7050efae88)" style="fill: none; stroke: #cbcbcb"/>
     </g>
     <g id="line2d_17"/>
     <g id="text_11">
      <!-- 0.5 -->
      <g transform="translate(35.5975 112.340134) scale(0.11 -0.11)">
       <defs>
        <path id="DejaVuSans-35" d="M 691 4666 
L 3169 4666 
L 3169 4134 
L 1269 4134 
L 1269 2991 
Q 1406 3038 1543 3061 
Q 1681 3084 1819 3084 
Q 2600 3084 3056 2656 
Q 3513 2228 3513 1497 
Q 3513 744 3044 326 
Q 2575 -91 1722 -91 
Q 1428 -91 1123 -41 
Q 819 9 494 109 
L 494 744 
Q 775 591 1075 516 
Q 1375 441 1709 441 
Q 2250 441 2565 725 
Q 2881 1009 2881 1497 
Q 2881 1984 2565 2268 
Q 2250 2553 1709 2553 
Q 1456 2553 1204 2497 
Q 953 2441 691 2322 
L 691 4666 
z
" transform="scale(0.015625)"/>
       </defs>
       <use xlink:href="#DejaVuSans-30"/>
       <use xlink:href="#DejaVuSans-2e" transform="translate(63.623047 0)"/>
       <use xlink:href="#DejaVuSans-35" transform="translate(95.410156 0)"/>
      </g>
     </g>
    </g>
   </g>
   <g id="patch_3">
    <path d="M 64.563301 386.358261 
L 128.34221 386.358261 
L 128.34221 96.569441 
L 64.563301 96.569441 
z
" clip-path="url(#p7050efae88)" style="fill: #1b86ba"/>
   </g>
   <g id="patch_4">
    <path d="M 144.286938 386.358261 
L 208.065847 386.358261 
L 208.065847 96.569441 
L 144.286938 96.569441 
z
" clip-path="url(#p7050efae88)" style="fill: #1b86ba"/>
   </g>
   <g id="patch_5">
    <path d="M 224.010574 386.358261 
L 287.789483 386.358261 
L 287.789483 189.301863 
L 224.010574 189.301863 
z
" clip-path="url(#p7050efae88)" style="fill: #1b86ba"/>
   </g>
   <g id="patch_6">
    <path d="M 303.73421 386.358261 
L 367.513119 386.358261 
L 367.513119 212.484969 
L 303.73421 212.484969 
z
" clip-path="url(#p7050efae88)" style="fill: #1b86ba"/>
   </g>
   <g id="patch_7">
    <path d="M 383.457847 386.358261 
L 447.236756 386.358261 
L 447.236756 235.668075 
L 383.457847 235.668075 
z
" clip-path="url(#p7050efae88)" style="fill: #1b86ba"/>
   </g>
   <g id="line2d_18">
    <path clip-path="url(#p7050efae88)" style="fill: none; stroke: #424242; stroke-width: 6"/>
   </g>
   <g id="line2d_19">
    <path clip-path="url(#p7050efae88)" style="fill: none; stroke: #424242; stroke-width: 6"/>
   </g>
   <g id="line2d_20">
    <path clip-path="url(#p7050efae88)" style="fill: none; stroke: #424242; stroke-width: 6"/>
   </g>
   <g id="line2d_21">
    <path clip-path="url(#p7050efae88)" style="fill: none; stroke: #424242; stroke-width: 6"/>
   </g>
   <g id="line2d_22">
    <path clip-path="url(#p7050efae88)" style="fill: none; stroke: #424242; stroke-width: 6"/>
   </g>
   <g id="patch_8">
    <path d="M 56.590938 386.358261 
L 56.590938 82.08 
" style="fill: none; stroke: #f0f0f0; stroke-width: 3; stroke-linejoin: miter; stroke-linecap: square"/>
   </g>
   <g id="patch_9">
    <path d="M 455.209119 386.358261 
L 455.209119 82.08 
" style="fill: none; stroke: #f0f0f0; stroke-width: 3; stroke-linejoin: miter; stroke-linecap: square"/>
   </g>
   <g id="patch_10">
    <path d="M 56.590938 386.358261 
L 455.209119 386.358261 
" style="fill: none; stroke: #f0f0f0; stroke-width: 3; stroke-linejoin: miter; stroke-linecap: square"/>
   </g>
   <g id="patch_11">
    <path d="M 56.590938 82.08 
L 455.209119 82.08 
" style="fill: none; stroke: #f0f0f0; stroke-width: 3; stroke-linejoin: miter; stroke-linecap: square"/>
   </g>
   <g id="text_12">
    <!-- Based on : Degree centrality -->
    <g transform="translate(141.360028 76.08) scale(0.16 -0.16)">
     <defs>
      <path id="DejaVuSans-42" d="M 1259 2228 
L 1259 519 
L 2272 519 
Q 2781 519 3026 730 
Q 3272 941 3272 1375 
Q 3272 1813 3026 2020 
Q 2781 2228 2272 2228 
L 1259 2228 
z
M 1259 4147 
L 1259 2741 
L 2194 2741 
Q 2656 2741 2882 2914 
Q 3109 3088 3109 3444 
Q 3109 3797 2882 3972 
Q 2656 4147 2194 4147 
L 1259 4147 
z
M 628 4666 
L 2241 4666 
Q 2963 4666 3353 4366 
Q 3744 4066 3744 3513 
Q 3744 3084 3544 2831 
Q 3344 2578 2956 2516 
Q 3422 2416 3680 2098 
Q 3938 1781 3938 1306 
Q 3938 681 3513 340 
Q 3088 0 2303 0 
L 628 0 
L 628 4666 
z
" transform="scale(0.015625)"/>
      <path id="DejaVuSans-65" d="M 3597 1894 
L 3597 1613 
L 953 1613 
Q 991 1019 1311 708 
Q 1631 397 2203 397 
Q 2534 397 2845 478 
Q 3156 559 3463 722 
L 3463 178 
Q 3153 47 2828 -22 
Q 2503 -91 2169 -91 
Q 1331 -91 842 396 
Q 353 884 353 1716 
Q 353 2575 817 3079 
Q 1281 3584 2069 3584 
Q 2775 3584 3186 3129 
Q 3597 2675 3597 1894 
z
M 3022 2063 
Q 3016 2534 2758 2815 
Q 2500 3097 2075 3097 
Q 1594 3097 1305 2825 
Q 1016 2553 972 2059 
L 3022 2063 
z
" transform="scale(0.015625)"/>
      <path id="DejaVuSans-64" d="M 2906 2969 
L 2906 4863 
L 3481 4863 
L 3481 0 
L 2906 0 
L 2906 525 
Q 2725 213 2448 61 
Q 2172 -91 1784 -91 
Q 1150 -91 751 415 
Q 353 922 353 1747 
Q 353 2572 751 3078 
Q 1150 3584 1784 3584 
Q 2172 3584 2448 3432 
Q 2725 3281 2906 2969 
z
M 947 1747 
Q 947 1113 1208 752 
Q 1469 391 1925 391 
Q 2381 391 2643 752 
Q 2906 1113 2906 1747 
Q 2906 2381 2643 2742 
Q 2381 3103 1925 3103 
Q 1469 3103 1208 2742 
Q 947 2381 947 1747 
z
" transform="scale(0.015625)"/>
      <path id="DejaVuSans-20" transform="scale(0.015625)"/>
      <path id="DejaVuSans-3a" d="M 750 794 
L 1409 794 
L 1409 0 
L 750 0 
L 750 794 
z
M 750 3309 
L 1409 3309 
L 1409 2516 
L 750 2516 
L 750 3309 
z
" transform="scale(0.015625)"/>
      <path id="DejaVuSans-44" d="M 1259 4147 
L 1259 519 
L 2022 519 
Q 2988 519 3436 956 
Q 3884 1394 3884 2338 
Q 3884 3275 3436 3711 
Q 2988 4147 2022 4147 
L 1259 4147 
z
M 628 4666 
L 1925 4666 
Q 3281 4666 3915 4102 
Q 4550 3538 4550 2338 
Q 4550 1131 3912 565 
Q 3275 0 1925 0 
L 628 0 
L 628 4666 
z
" transform="scale(0.015625)"/>
      <path id="DejaVuSans-67" d="M 2906 1791 
Q 2906 2416 2648 2759 
Q 2391 3103 1925 3103 
Q 1463 3103 1205 2759 
Q 947 2416 947 1791 
Q 947 1169 1205 825 
Q 1463 481 1925 481 
Q 2391 481 2648 825 
Q 2906 1169 2906 1791 
z
M 3481 434 
Q 3481 -459 3084 -895 
Q 2688 -1331 1869 -1331 
Q 1566 -1331 1297 -1286 
Q 1028 -1241 775 -1147 
L 775 -588 
Q 1028 -725 1275 -790 
Q 1522 -856 1778 -856 
Q 2344 -856 2625 -561 
Q 2906 -266 2906 331 
L 2906 616 
Q 2728 306 2450 153 
Q 2172 0 1784 0 
Q 1141 0 747 490 
Q 353 981 353 1791 
Q 353 2603 747 3093 
Q 1141 3584 1784 3584 
Q 2172 3584 2450 3431 
Q 2728 3278 2906 2969 
L 2906 3500 
L 3481 3500 
L 3481 434 
z
" transform="scale(0.015625)"/>
      <path id="DejaVuSans-63" d="M 3122 3366 
L 3122 2828 
Q 2878 2963 2633 3030 
Q 2388 3097 2138 3097 
Q 1578 3097 1268 2742 
Q 959 2388 959 1747 
Q 959 1106 1268 751 
Q 1578 397 2138 397 
Q 2388 397 2633 464 
Q 2878 531 3122 666 
L 3122 134 
Q 2881 22 2623 -34 
Q 2366 -91 2075 -91 
Q 1284 -91 818 406 
Q 353 903 353 1747 
Q 353 2603 823 3093 
Q 1294 3584 2113 3584 
Q 2378 3584 2631 3529 
Q 2884 3475 3122 3366 
z
" transform="scale(0.015625)"/>
      <path id="DejaVuSans-74" d="M 1172 4494 
L 1172 3500 
L 2356 3500 
L 2356 3053 
L 1172 3053 
L 1172 1153 
Q 1172 725 1289 603 
Q 1406 481 1766 481 
L 2356 481 
L 2356 0 
L 1766 0 
Q 1100 0 847 248 
Q 594 497 594 1153 
L 594 3053 
L 172 3053 
L 172 3500 
L 594 3500 
L 594 4494 
L 1172 4494 
z
" transform="scale(0.015625)"/>
      <path id="DejaVuSans-6c" d="M 603 4863 
L 1178 4863 
L 1178 0 
L 603 0 
L 603 4863 
z
" transform="scale(0.015625)"/>
     </defs>
     <use xlink:href="#DejaVuSans-42"/>
     <use xlink:href="#DejaVuSans-61" transform="translate(68.603516 0)"/>
     <use xlink:href="#DejaVuSans-73" transform="translate(129.882812 0)"/>
     <use xlink:href="#DejaVuSans-65" transform="translate(181.982422 0)"/>
     <use xlink:href="#DejaVuSans-64" transform="translate(243.505859 0)"/>
     <use xlink:href="#DejaVuSans-20" transform="translate(306.982422 0)"/>
     <use xlink:href="#DejaVuSans-6f" transform="translate(338.769531 0)"/>
     <use xlink:href="#DejaVuSans-6e" transform="translate(399.951172 0)"/>
     <use xlink:href="#DejaVuSans-20" transform="translate(463.330078 0)"/>
     <use xlink:href="#DejaVuSans-3a" transform="translate(495.117188 0)"/>
     <use xlink:href="#DejaVuSans-20" transform="translate(528.808594 0)"/>
     <use xlink:href="#DejaVuSans-44" transform="translate(560.595703 0)"/>
     <use xlink:href="#DejaVuSans-65" transform="translate(637.597656 0)"/>
     <use xlink:href="#DejaVuSans-67" transform="translate(699.121094 0)"/>
     <use xlink:href="#DejaVuSans-72" transform="translate(762.597656 0)"/>
     <use xlink:href="#DejaVuSans-65" transform="translate(801.460938 0)"/>
     <use xlink:href="#DejaVuSans-65" transform="translate(862.984375 0)"/>
     <use xlink:href="#DejaVuSans-20" transform="translate(924.507812 0)"/>
     <use xlink:href="#DejaVuSans-63" transform="translate(956.294922 0)"/>
     <use xlink:href="#DejaVuSans-65" transform="translate(1011.275391 0)"/>
     <use xlink:href="#DejaVuSans-6e" transform="translate(1072.798828 0)"/>
     <use xlink:href="#DejaVuSans-74" transform="translate(1136.177734 0)"/>
     <use xlink:href="#DejaVuSans-72" transform="translate(1175.386719 0)"/>
     <use xlink:href="#DejaVuSans-61" transform="translate(1216.5 0)"/>
     <use xlink:href="#DejaVuSans-6c" transform="translate(1277.779297 0)"/>
     <use xlink:href="#DejaVuSans-69" transform="translate(1305.5625 0)"/>
     <use xlink:href="#DejaVuSans-74" transform="translate(1333.345703 0)"/>
     <use xlink:href="#DejaVuSans-79" transform="translate(1372.554688 0)"/>
    </g>
   </g>
  </g>
  <g id="axes_2">
   <g id="patch_12">
    <path d="M 534.932756 386.358261 
L 933.550937 386.358261 
L 933.550937 82.08 
L 534.932756 82.08 
z
" style="fill: #f0f0f0"/>
   </g>
   <g id="matplotlib.axis_3">
    <g id="xtick_6">
     <g id="line2d_23"/>
     <g id="text_13">
      <!-- Muzan -->
      <g transform="translate(557.620885 404.331806) rotate(-10) scale(0.11 -0.11)">
       <use xlink:href="#DejaVuSans-4d"/>
       <use xlink:href="#DejaVuSans-75" transform="translate(86.279297 0)"/>
       <use xlink:href="#DejaVuSans-7a" transform="translate(149.658203 0)"/>
       <use xlink:href="#DejaVuSans-61" transform="translate(202.148438 0)"/>
       <use xlink:href="#DejaVuSans-6e" transform="translate(263.427734 0)"/>
      </g>
     </g>
    </g>
    <g id="xtick_7">
     <g id="line2d_24"/>
     <g id="text_14">
      <!-- Tanjiro -->
      <g transform="translate(637.450311 404.294499) rotate(-10) scale(0.11 -0.11)">
       <use xlink:href="#DejaVuSans-54"/>
       <use xlink:href="#DejaVuSans-61" transform="translate(44.583984 0)"/>
       <use xlink:href="#DejaVuSans-6e" transform="translate(105.863281 0)"/>
       <use xlink:href="#DejaVuSans-6a" transform="translate(169.242188 0)"/>
       <use xlink:href="#DejaVuSans-69" transform="translate(197.025391 0)"/>
       <use xlink:href="#DejaVuSans-72" transform="translate(224.808594 0)"/>
       <use xlink:href="#DejaVuSans-6f" transform="translate(263.671875 0)"/>
      </g>
     </g>
    </g>
    <g id="xtick_8">
     <g id="line2d_25"/>
     <g id="text_15">
      <!-- Akaza -->
      <g transform="translate(718.540753 403.812489) rotate(-10) scale(0.11 -0.11)">
       <use xlink:href="#DejaVuSans-41"/>
       <use xlink:href="#DejaVuSans-6b" transform="translate(68.408203 0)"/>
       <use xlink:href="#DejaVuSans-61" transform="translate(124.568359 0)"/>
       <use xlink:href="#DejaVuSans-7a" transform="translate(185.847656 0)"/>
       <use xlink:href="#DejaVuSans-61" transform="translate(238.337891 0)"/>
      </g>
     </g>
    </g>
    <g id="xtick_9">
     <g id="line2d_26"/>
     <g id="text_16">
      <!-- Giyu -->
      <g transform="translate(802.15238 402.441374) rotate(-10) scale(0.11 -0.11)">
       <use xlink:href="#DejaVuSans-47"/>
       <use xlink:href="#DejaVuSans-69" transform="translate(77.490234 0)"/>
       <use xlink:href="#DejaVuSans-79" transform="translate(105.273438 0)"/>
       <use xlink:href="#DejaVuSans-75" transform="translate(164.453125 0)"/>
      </g>
     </g>
    </g>
    <g id="xtick_10">
     <g id="line2d_27"/>
     <g id="text_17">
      <!-- Kiriya -->
      <g transform="translate(878.902897 403.489857) rotate(-10) scale(0.11 -0.11)">
       <defs>
        <path id="DejaVuSans-4b" d="M 628 4666 
L 1259 4666 
L 1259 2694 
L 3353 4666 
L 4166 4666 
L 1850 2491 
L 4331 0 
L 3500 0 
L 1259 2247 
L 1259 0 
L 628 0 
L 628 4666 
z
" transform="scale(0.015625)"/>
       </defs>
       <use xlink:href="#DejaVuSans-4b"/>
       <use xlink:href="#DejaVuSans-69" transform="translate(65.576172 0)"/>
       <use xlink:href="#DejaVuSans-72" transform="translate(93.359375 0)"/>
       <use xlink:href="#DejaVuSans-69" transform="translate(134.472656 0)"/>
       <use xlink:href="#DejaVuSans-79" transform="translate(162.255859 0)"/>
       <use xlink:href="#DejaVuSans-61" transform="translate(221.435547 0)"/>
      </g>
     </g>
    </g>
   </g>
   <g id="matplotlib.axis_4">
    <g id="ytick_7">
     <g id="line2d_28">
      <path d="M 534.932756 386.358261 
L 933.550937 386.358261 
" clip-path="url(#paed7ba69ce)" style="fill: none; stroke: #cbcbcb"/>
     </g>
     <g id="line2d_29"/>
     <g id="text_18">
      <!-- 0.0 -->
      <g transform="translate(513.939318 390.537401) scale(0.11 -0.11)">
       <use xlink:href="#DejaVuSans-30"/>
       <use xlink:href="#DejaVuSans-2e" transform="translate(63.623047 0)"/>
       <use xlink:href="#DejaVuSans-30" transform="translate(95.410156 0)"/>
      </g>
     </g>
    </g>
    <g id="ytick_8">
     <g id="line2d_30">
      <path d="M 534.932756 341.682484 
L 933.550937 341.682484 
" clip-path="url(#paed7ba69ce)" style="fill: none; stroke: #cbcbcb"/>
     </g>
     <g id="line2d_31"/>
     <g id="text_19">
      <!-- 0.1 -->
      <g transform="translate(513.939318 345.861625) scale(0.11 -0.11)">
       <use xlink:href="#DejaVuSans-30"/>
       <use xlink:href="#DejaVuSans-2e" transform="translate(63.623047 0)"/>
       <use xlink:href="#DejaVuSans-31" transform="translate(95.410156 0)"/>
      </g>
     </g>
    </g>
    <g id="ytick_9">
     <g id="line2d_32">
      <path d="M 534.932756 297.006708 
L 933.550937 297.006708 
" clip-path="url(#paed7ba69ce)" style="fill: none; stroke: #cbcbcb"/>
     </g>
     <g id="line2d_33"/>
     <g id="text_20">
      <!-- 0.2 -->
      <g transform="translate(513.939318 301.185849) scale(0.11 -0.11)">
       <use xlink:href="#DejaVuSans-30"/>
       <use xlink:href="#DejaVuSans-2e" transform="translate(63.623047 0)"/>
       <use xlink:href="#DejaVuSans-32" transform="translate(95.410156 0)"/>
      </g>
     </g>
    </g>
    <g id="ytick_10">
     <g id="line2d_34">
      <path d="M 534.932756 252.330932 
L 933.550937 252.330932 
" clip-path="url(#paed7ba69ce)" style="fill: none; stroke: #cbcbcb"/>
     </g>
     <g id="line2d_35"/>
     <g id="text_21">
      <!-- 0.3 -->
      <g transform="translate(513.939318 256.510072) scale(0.11 -0.11)">
       <use xlink:href="#DejaVuSans-30"/>
       <use xlink:href="#DejaVuSans-2e" transform="translate(63.623047 0)"/>
       <use xlink:href="#DejaVuSans-33" transform="translate(95.410156 0)"/>
      </g>
     </g>
    </g>
    <g id="ytick_11">
     <g id="line2d_36">
      <path d="M 534.932756 207.655155 
L 933.550937 207.655155 
" clip-path="url(#paed7ba69ce)" style="fill: none; stroke: #cbcbcb"/>
     </g>
     <g id="line2d_37"/>
     <g id="text_22">
      <!-- 0.4 -->
      <g transform="translate(513.939318 211.834296) scale(0.11 -0.11)">
       <use xlink:href="#DejaVuSans-30"/>
       <use xlink:href="#DejaVuSans-2e" transform="translate(63.623047 0)"/>
       <use xlink:href="#DejaVuSans-34" transform="translate(95.410156 0)"/>
      </g>
     </g>
    </g>
    <g id="ytick_12">
     <g id="line2d_38">
      <path d="M 534.932756 162.979379 
L 933.550937 162.979379 
" clip-path="url(#paed7ba69ce)" style="fill: none; stroke: #cbcbcb"/>
     </g>
     <g id="line2d_39"/>
     <g id="text_23">
      <!-- 0.5 -->
      <g transform="translate(513.939318 167.15852) scale(0.11 -0.11)">
       <use xlink:href="#DejaVuSans-30"/>
       <use xlink:href="#DejaVuSans-2e" transform="translate(63.623047 0)"/>
       <use xlink:href="#DejaVuSans-35" transform="translate(95.410156 0)"/>
      </g>
     </g>
    </g>
    <g id="ytick_13">
     <g id="line2d_40">
      <path d="M 534.932756 118.303602 
L 933.550937 118.303602 
" clip-path="url(#paed7ba69ce)" style="fill: none; stroke: #cbcbcb"/>
     </g>
     <g id="line2d_41"/>
     <g id="text_24">
      <!-- 0.6 -->
      <g transform="translate(513.939318 122.482743) scale(0.11 -0.11)">
       <defs>
        <path id="DejaVuSans-36" d="M 2113 2584 
Q 1688 2584 1439 2293 
Q 1191 2003 1191 1497 
Q 1191 994 1439 701 
Q 1688 409 2113 409 
Q 2538 409 2786 701 
Q 3034 994 3034 1497 
Q 3034 2003 2786 2293 
Q 2538 2584 2113 2584 
z
M 3366 4563 
L 3366 3988 
Q 3128 4100 2886 4159 
Q 2644 4219 2406 4219 
Q 1781 4219 1451 3797 
Q 1122 3375 1075 2522 
Q 1259 2794 1537 2939 
Q 1816 3084 2150 3084 
Q 2853 3084 3261 2657 
Q 3669 2231 3669 1497 
Q 3669 778 3244 343 
Q 2819 -91 2113 -91 
Q 1303 -91 875 529 
Q 447 1150 447 2328 
Q 447 3434 972 4092 
Q 1497 4750 2381 4750 
Q 2619 4750 2861 4703 
Q 3103 4656 3366 4563 
z
" transform="scale(0.015625)"/>
       </defs>
       <use xlink:href="#DejaVuSans-30"/>
       <use xlink:href="#DejaVuSans-2e" transform="translate(63.623047 0)"/>
       <use xlink:href="#DejaVuSans-36" transform="translate(95.410156 0)"/>
      </g>
     </g>
    </g>
   </g>
   <g id="patch_13">
    <path d="M 542.905119 386.358261 
L 606.684028 386.358261 
L 606.684028 96.569441 
L 542.905119 96.569441 
z
" clip-path="url(#paed7ba69ce)" style="fill: #1b86ba"/>
   </g>
   <g id="patch_14">
    <path d="M 622.628756 386.358261 
L 686.407665 386.358261 
L 686.407665 100.433292 
L 622.628756 100.433292 
z
" clip-path="url(#paed7ba69ce)" style="fill: #1b86ba"/>
   </g>
   <g id="patch_15">
    <path d="M 702.352392 386.358261 
L 766.131301 386.358261 
L 766.131301 137.00509 
L 702.352392 137.00509 
z
" clip-path="url(#paed7ba69ce)" style="fill: #1b86ba"/>
   </g>
   <g id="patch_16">
    <path d="M 782.076028 386.358261 
L 845.854938 386.358261 
L 845.854938 139.871219 
L 782.076028 139.871219 
z
" clip-path="url(#paed7ba69ce)" style="fill: #1b86ba"/>
   </g>
   <g id="patch_17">
    <path d="M 861.799665 386.358261 
L 925.578574 386.358261 
L 925.578574 145.410253 
L 861.799665 145.410253 
z
" clip-path="url(#paed7ba69ce)" style="fill: #1b86ba"/>
   </g>
   <g id="line2d_42">
    <path clip-path="url(#paed7ba69ce)" style="fill: none; stroke: #424242; stroke-width: 6"/>
   </g>
   <g id="line2d_43">
    <path clip-path="url(#paed7ba69ce)" style="fill: none; stroke: #424242; stroke-width: 6"/>
   </g>
   <g id="line2d_44">
    <path clip-path="url(#paed7ba69ce)" style="fill: none; stroke: #424242; stroke-width: 6"/>
   </g>
   <g id="line2d_45">
    <path clip-path="url(#paed7ba69ce)" style="fill: none; stroke: #424242; stroke-width: 6"/>
   </g>
   <g id="line2d_46">
    <path clip-path="url(#paed7ba69ce)" style="fill: none; stroke: #424242; stroke-width: 6"/>
   </g>
   <g id="patch_18">
    <path d="M 534.932756 386.358261 
L 534.932756 82.08 
" style="fill: none; stroke: #f0f0f0; stroke-width: 3; stroke-linejoin: miter; stroke-linecap: square"/>
   </g>
   <g id="patch_19">
    <path d="M 933.550937 386.358261 
L 933.550937 82.08 
" style="fill: none; stroke: #f0f0f0; stroke-width: 3; stroke-linejoin: miter; stroke-linecap: square"/>
   </g>
   <g id="patch_20">
    <path d="M 534.932756 386.358261 
L 933.550937 386.358261 
" style="fill: none; stroke: #f0f0f0; stroke-width: 3; stroke-linejoin: miter; stroke-linecap: square"/>
   </g>
   <g id="patch_21">
    <path d="M 534.932756 82.08 
L 933.550937 82.08 
" style="fill: none; stroke: #f0f0f0; stroke-width: 3; stroke-linejoin: miter; stroke-linecap: square"/>
   </g>
   <g id="text_25">
    <!-- Based on : Closeness centrality -->
    <g transform="translate(608.695597 76.08) scale(0.16 -0.16)">
     <defs>
      <path id="DejaVuSans-43" d="M 4122 4306 
L 4122 3641 
Q 3803 3938 3442 4084 
Q 3081 4231 2675 4231 
Q 1875 4231 1450 3742 
Q 1025 3253 1025 2328 
Q 1025 1406 1450 917 
Q 1875 428 2675 428 
Q 3081 428 3442 575 
Q 3803 722 4122 1019 
L 4122 359 
Q 3791 134 3420 21 
Q 3050 -91 2638 -91 
Q 1578 -91 968 557 
Q 359 1206 359 2328 
Q 359 3453 968 4101 
Q 1578 4750 2638 4750 
Q 3056 4750 3426 4639 
Q 3797 4528 4122 4306 
z
" transform="scale(0.015625)"/>
     </defs>
     <use xlink:href="#DejaVuSans-42"/>
     <use xlink:href="#DejaVuSans-61" transform="translate(68.603516 0)"/>
     <use xlink:href="#DejaVuSans-73" transform="translate(129.882812 0)"/>
     <use xlink:href="#DejaVuSans-65" transform="translate(181.982422 0)"/>
     <use xlink:href="#DejaVuSans-64" transform="translate(243.505859 0)"/>
     <use xlink:href="#DejaVuSans-20" transform="translate(306.982422 0)"/>
     <use xlink:href="#DejaVuSans-6f" transform="translate(338.769531 0)"/>
     <use xlink:href="#DejaVuSans-6e" transform="translate(399.951172 0)"/>
     <use xlink:href="#DejaVuSans-20" transform="translate(463.330078 0)"/>
     <use xlink:href="#DejaVuSans-3a" transform="translate(495.117188 0)"/>
     <use xlink:href="#DejaVuSans-20" transform="translate(528.808594 0)"/>
     <use xlink:href="#DejaVuSans-43" transform="translate(560.595703 0)"/>
     <use xlink:href="#DejaVuSans-6c" transform="translate(630.419922 0)"/>
     <use xlink:href="#DejaVuSans-6f" transform="translate(658.203125 0)"/>
     <use xlink:href="#DejaVuSans-73" transform="translate(719.384766 0)"/>
     <use xlink:href="#DejaVuSans-65" transform="translate(771.484375 0)"/>
     <use xlink:href="#DejaVuSans-6e" transform="translate(833.007812 0)"/>
     <use xlink:href="#DejaVuSans-65" transform="translate(896.386719 0)"/>
     <use xlink:href="#DejaVuSans-73" transform="translate(957.910156 0)"/>
     <use xlink:href="#DejaVuSans-73" transform="translate(1010.009766 0)"/>
     <use xlink:href="#DejaVuSans-20" transform="translate(1062.109375 0)"/>
     <use xlink:href="#DejaVuSans-63" transform="translate(1093.896484 0)"/>
     <use xlink:href="#DejaVuSans-65" transform="translate(1148.876953 0)"/>
     <use xlink:href="#DejaVuSans-6e" transform="translate(1210.400391 0)"/>
     <use xlink:href="#DejaVuSans-74" transform="translate(1273.779297 0)"/>
     <use xlink:href="#DejaVuSans-72" transform="translate(1312.988281 0)"/>
     <use xlink:href="#DejaVuSans-61" transform="translate(1354.101562 0)"/>
     <use xlink:href="#DejaVuSans-6c" transform="translate(1415.380859 0)"/>
     <use xlink:href="#DejaVuSans-69" transform="translate(1443.164062 0)"/>
     <use xlink:href="#DejaVuSans-74" transform="translate(1470.947266 0)"/>
     <use xlink:href="#DejaVuSans-79" transform="translate(1510.15625 0)"/>
    </g>
   </g>
  </g>
  <g id="axes_3">
   <g id="patch_22">
    <path d="M 56.590938 781.92 
L 455.209119 781.92 
L 455.209119 477.641739 
L 56.590938 477.641739 
z
" style="fill: #f0f0f0"/>
   </g>
   <g id="matplotlib.axis_5">
    <g id="xtick_11">
     <g id="line2d_47"/>
     <g id="text_26">
      <!-- Tanjiro -->
      <g transform="translate(79.384857 799.856238) rotate(-10) scale(0.11 -0.11)">
       <use xlink:href="#DejaVuSans-54"/>
       <use xlink:href="#DejaVuSans-61" transform="translate(44.583984 0)"/>
       <use xlink:href="#DejaVuSans-6e" transform="translate(105.863281 0)"/>
       <use xlink:href="#DejaVuSans-6a" transform="translate(169.242188 0)"/>
       <use xlink:href="#DejaVuSans-69" transform="translate(197.025391 0)"/>
       <use xlink:href="#DejaVuSans-72" transform="translate(224.808594 0)"/>
       <use xlink:href="#DejaVuSans-6f" transform="translate(263.671875 0)"/>
      </g>
     </g>
    </g>
    <g id="xtick_12">
     <g id="line2d_48"/>
     <g id="text_27">
      <!-- Muzan -->
      <g transform="translate(159.002703 799.893545) rotate(-10) scale(0.11 -0.11)">
       <use xlink:href="#DejaVuSans-4d"/>
       <use xlink:href="#DejaVuSans-75" transform="translate(86.279297 0)"/>
       <use xlink:href="#DejaVuSans-7a" transform="translate(149.658203 0)"/>
       <use xlink:href="#DejaVuSans-61" transform="translate(202.148438 0)"/>
       <use xlink:href="#DejaVuSans-6e" transform="translate(263.427734 0)"/>
      </g>
     </g>
    </g>
    <g id="xtick_13">
     <g id="line2d_49"/>
     <g id="text_28">
      <!-- Kanao -->
      <g transform="translate(239.584507 799.590909) rotate(-10) scale(0.11 -0.11)">
       <use xlink:href="#DejaVuSans-4b"/>
       <use xlink:href="#DejaVuSans-61" transform="translate(63.826172 0)"/>
       <use xlink:href="#DejaVuSans-6e" transform="translate(125.105469 0)"/>
       <use xlink:href="#DejaVuSans-61" transform="translate(188.484375 0)"/>
       <use xlink:href="#DejaVuSans-6f" transform="translate(249.763672 0)"/>
      </g>
     </g>
    </g>
    <g id="xtick_14">
     <g id="line2d_50"/>
     <g id="text_29">
      <!-- Akaza -->
      <g transform="translate(319.922571 799.374229) rotate(-10) scale(0.11 -0.11)">
       <use xlink:href="#DejaVuSans-41"/>
       <use xlink:href="#DejaVuSans-6b" transform="translate(68.408203 0)"/>
       <use xlink:href="#DejaVuSans-61" transform="translate(124.568359 0)"/>
       <use xlink:href="#DejaVuSans-7a" transform="translate(185.847656 0)"/>
       <use xlink:href="#DejaVuSans-61" transform="translate(238.337891 0)"/>
      </g>
     </g>
    </g>
    <g id="xtick_15">
     <g id="line2d_51"/>
     <g id="text_30">
      <!-- Sanemi -->
      <g transform="translate(395.570335 800.811601) rotate(-10) scale(0.11 -0.11)">
       <defs>
        <path id="DejaVuSans-53" d="M 3425 4513 
L 3425 3897 
Q 3066 4069 2747 4153 
Q 2428 4238 2131 4238 
Q 1616 4238 1336 4038 
Q 1056 3838 1056 3469 
Q 1056 3159 1242 3001 
Q 1428 2844 1947 2747 
L 2328 2669 
Q 3034 2534 3370 2195 
Q 3706 1856 3706 1288 
Q 3706 609 3251 259 
Q 2797 -91 1919 -91 
Q 1588 -91 1214 -16 
Q 841 59 441 206 
L 441 856 
Q 825 641 1194 531 
Q 1563 422 1919 422 
Q 2459 422 2753 634 
Q 3047 847 3047 1241 
Q 3047 1584 2836 1778 
Q 2625 1972 2144 2069 
L 1759 2144 
Q 1053 2284 737 2584 
Q 422 2884 422 3419 
Q 422 4038 858 4394 
Q 1294 4750 2059 4750 
Q 2388 4750 2728 4690 
Q 3069 4631 3425 4513 
z
" transform="scale(0.015625)"/>
        <path id="DejaVuSans-6d" d="M 3328 2828 
Q 3544 3216 3844 3400 
Q 4144 3584 4550 3584 
Q 5097 3584 5394 3201 
Q 5691 2819 5691 2113 
L 5691 0 
L 5113 0 
L 5113 2094 
Q 5113 2597 4934 2840 
Q 4756 3084 4391 3084 
Q 3944 3084 3684 2787 
Q 3425 2491 3425 1978 
L 3425 0 
L 2847 0 
L 2847 2094 
Q 2847 2600 2669 2842 
Q 2491 3084 2119 3084 
Q 1678 3084 1418 2786 
Q 1159 2488 1159 1978 
L 1159 0 
L 581 0 
L 581 3500 
L 1159 3500 
L 1159 2956 
Q 1356 3278 1631 3431 
Q 1906 3584 2284 3584 
Q 2666 3584 2933 3390 
Q 3200 3197 3328 2828 
z
" transform="scale(0.015625)"/>
       </defs>
       <use xlink:href="#DejaVuSans-53"/>
       <use xlink:href="#DejaVuSans-61" transform="translate(63.476562 0)"/>
       <use xlink:href="#DejaVuSans-6e" transform="translate(124.755859 0)"/>
       <use xlink:href="#DejaVuSans-65" transform="translate(188.134766 0)"/>
       <use xlink:href="#DejaVuSans-6d" transform="translate(249.658203 0)"/>
       <use xlink:href="#DejaVuSans-69" transform="translate(347.070312 0)"/>
      </g>
     </g>
    </g>
   </g>
   <g id="matplotlib.axis_6">
    <g id="ytick_14">
     <g id="line2d_52">
      <path d="M 56.590938 781.92 
L 455.209119 781.92 
" clip-path="url(#p65c7d4cc3f)" style="fill: none; stroke: #cbcbcb"/>
     </g>
     <g id="line2d_53"/>
     <g id="text_31">
      <!-- 0.000 -->
      <g transform="translate(21.6 786.099141) scale(0.11 -0.11)">
       <use xlink:href="#DejaVuSans-30"/>
       <use xlink:href="#DejaVuSans-2e" transform="translate(63.623047 0)"/>
       <use xlink:href="#DejaVuSans-30" transform="translate(95.410156 0)"/>
       <use xlink:href="#DejaVuSans-30" transform="translate(159.033203 0)"/>
       <use xlink:href="#DejaVuSans-30" transform="translate(222.65625 0)"/>
      </g>
     </g>
    </g>
    <g id="ytick_15">
     <g id="line2d_54">
      <path d="M 56.590938 745.309465 
L 455.209119 745.309465 
" clip-path="url(#p65c7d4cc3f)" style="fill: none; stroke: #cbcbcb"/>
     </g>
     <g id="line2d_55"/>
     <g id="text_32">
      <!-- 0.025 -->
      <g transform="translate(21.6 749.488605) scale(0.11 -0.11)">
       <use xlink:href="#DejaVuSans-30"/>
       <use xlink:href="#DejaVuSans-2e" transform="translate(63.623047 0)"/>
       <use xlink:href="#DejaVuSans-30" transform="translate(95.410156 0)"/>
       <use xlink:href="#DejaVuSans-32" transform="translate(159.033203 0)"/>
       <use xlink:href="#DejaVuSans-35" transform="translate(222.65625 0)"/>
      </g>
     </g>
    </g>
    <g id="ytick_16">
     <g id="line2d_56">
      <path d="M 56.590938 708.698929 
L 455.209119 708.698929 
" clip-path="url(#p65c7d4cc3f)" style="fill: none; stroke: #cbcbcb"/>
     </g>
     <g id="line2d_57"/>
     <g id="text_33">
      <!-- 0.050 -->
      <g transform="translate(21.6 712.87807) scale(0.11 -0.11)">
       <use xlink:href="#DejaVuSans-30"/>
       <use xlink:href="#DejaVuSans-2e" transform="translate(63.623047 0)"/>
       <use xlink:href="#DejaVuSans-30" transform="translate(95.410156 0)"/>
       <use xlink:href="#DejaVuSans-35" transform="translate(159.033203 0)"/>
       <use xlink:href="#DejaVuSans-30" transform="translate(222.65625 0)"/>
      </g>
     </g>
    </g>
    <g id="ytick_17">
     <g id="line2d_58">
      <path d="M 56.590938 672.088394 
L 455.209119 672.088394 
" clip-path="url(#p65c7d4cc3f)" style="fill: none; stroke: #cbcbcb"/>
     </g>
     <g id="line2d_59"/>
     <g id="text_34">
      <!-- 0.075 -->
      <g transform="translate(21.6 676.267534) scale(0.11 -0.11)">
       <defs>
        <path id="DejaVuSans-37" d="M 525 4666 
L 3525 4666 
L 3525 4397 
L 1831 0 
L 1172 0 
L 2766 4134 
L 525 4134 
L 525 4666 
z
" transform="scale(0.015625)"/>
       </defs>
       <use xlink:href="#DejaVuSans-30"/>
       <use xlink:href="#DejaVuSans-2e" transform="translate(63.623047 0)"/>
       <use xlink:href="#DejaVuSans-30" transform="translate(95.410156 0)"/>
       <use xlink:href="#DejaVuSans-37" transform="translate(159.033203 0)"/>
       <use xlink:href="#DejaVuSans-35" transform="translate(222.65625 0)"/>
      </g>
     </g>
    </g>
    <g id="ytick_18">
     <g id="line2d_60">
      <path d="M 56.590938 635.477858 
L 455.209119 635.477858 
" clip-path="url(#p65c7d4cc3f)" style="fill: none; stroke: #cbcbcb"/>
     </g>
     <g id="line2d_61"/>
     <g id="text_35">
      <!-- 0.100 -->
      <g transform="translate(21.6 639.656999) scale(0.11 -0.11)">
       <use xlink:href="#DejaVuSans-30"/>
       <use xlink:href="#DejaVuSans-2e" transform="translate(63.623047 0)"/>
       <use xlink:href="#DejaVuSans-31" transform="translate(95.410156 0)"/>
       <use xlink:href="#DejaVuSans-30" transform="translate(159.033203 0)"/>
       <use xlink:href="#DejaVuSans-30" transform="translate(222.65625 0)"/>
      </g>
     </g>
    </g>
    <g id="ytick_19">
     <g id="line2d_62">
      <path d="M 56.590938 598.867323 
L 455.209119 598.867323 
" clip-path="url(#p65c7d4cc3f)" style="fill: none; stroke: #cbcbcb"/>
     </g>
     <g id="line2d_63"/>
     <g id="text_36">
      <!-- 0.125 -->
      <g transform="translate(21.6 603.046463) scale(0.11 -0.11)">
       <use xlink:href="#DejaVuSans-30"/>
       <use xlink:href="#DejaVuSans-2e" transform="translate(63.623047 0)"/>
       <use xlink:href="#DejaVuSans-31" transform="translate(95.410156 0)"/>
       <use xlink:href="#DejaVuSans-32" transform="translate(159.033203 0)"/>
       <use xlink:href="#DejaVuSans-35" transform="translate(222.65625 0)"/>
      </g>
     </g>
    </g>
    <g id="ytick_20">
     <g id="line2d_64">
      <path d="M 56.590938 562.256787 
L 455.209119 562.256787 
" clip-path="url(#p65c7d4cc3f)" style="fill: none; stroke: #cbcbcb"/>
     </g>
     <g id="line2d_65"/>
     <g id="text_37">
      <!-- 0.150 -->
      <g transform="translate(21.6 566.435928) scale(0.11 -0.11)">
       <use xlink:href="#DejaVuSans-30"/>
       <use xlink:href="#DejaVuSans-2e" transform="translate(63.623047 0)"/>
       <use xlink:href="#DejaVuSans-31" transform="translate(95.410156 0)"/>
       <use xlink:href="#DejaVuSans-35" transform="translate(159.033203 0)"/>
       <use xlink:href="#DejaVuSans-30" transform="translate(222.65625 0)"/>
      </g>
     </g>
    </g>
    <g id="ytick_21">
     <g id="line2d_66">
      <path d="M 56.590938 525.646252 
L 455.209119 525.646252 
" clip-path="url(#p65c7d4cc3f)" style="fill: none; stroke: #cbcbcb"/>
     </g>
     <g id="line2d_67"/>
     <g id="text_38">
      <!-- 0.175 -->
      <g transform="translate(21.6 529.825392) scale(0.11 -0.11)">
       <use xlink:href="#DejaVuSans-30"/>
       <use xlink:href="#DejaVuSans-2e" transform="translate(63.623047 0)"/>
       <use xlink:href="#DejaVuSans-31" transform="translate(95.410156 0)"/>
       <use xlink:href="#DejaVuSans-37" transform="translate(159.033203 0)"/>
       <use xlink:href="#DejaVuSans-35" transform="translate(222.65625 0)"/>
      </g>
     </g>
    </g>
    <g id="ytick_22">
     <g id="line2d_68">
      <path d="M 56.590938 489.035716 
L 455.209119 489.035716 
" clip-path="url(#p65c7d4cc3f)" style="fill: none; stroke: #cbcbcb"/>
     </g>
     <g id="line2d_69"/>
     <g id="text_39">
      <!-- 0.200 -->
      <g transform="translate(21.6 493.214857) scale(0.11 -0.11)">
       <use xlink:href="#DejaVuSans-30"/>
       <use xlink:href="#DejaVuSans-2e" transform="translate(63.623047 0)"/>
       <use xlink:href="#DejaVuSans-32" transform="translate(95.410156 0)"/>
       <use xlink:href="#DejaVuSans-30" transform="translate(159.033203 0)"/>
       <use xlink:href="#DejaVuSans-30" transform="translate(222.65625 0)"/>
      </g>
     </g>
    </g>
   </g>
   <g id="patch_23">
    <path d="M 64.563301 781.92 
L 128.34221 781.92 
L 128.34221 492.13118 
L 64.563301 492.13118 
z
" clip-path="url(#p65c7d4cc3f)" style="fill: #1b86ba"/>
   </g>
   <g id="patch_24">
    <path d="M 144.286938 781.92 
L 208.065847 781.92 
L 208.065847 519.956069 
L 144.286938 519.956069 
z
" clip-path="url(#p65c7d4cc3f)" style="fill: #1b86ba"/>
   </g>
   <g id="patch_25">
    <path d="M 224.010574 781.92 
L 287.789483 781.92 
L 287.789483 649.891784 
L 224.010574 649.891784 
z
" clip-path="url(#p65c7d4cc3f)" style="fill: #1b86ba"/>
   </g>
   <g id="patch_26">
    <path d="M 303.73421 781.92 
L 367.513119 781.92 
L 367.513119 677.297304 
L 303.73421 677.297304 
z
" clip-path="url(#p65c7d4cc3f)" style="fill: #1b86ba"/>
   </g>
   <g id="patch_27">
    <path d="M 383.457847 781.92 
L 447.236756 781.92 
L 447.236756 683.676793 
L 383.457847 683.676793 
z
" clip-path="url(#p65c7d4cc3f)" style="fill: #1b86ba"/>
   </g>
   <g id="line2d_70">
    <path clip-path="url(#p65c7d4cc3f)" style="fill: none; stroke: #424242; stroke-width: 6"/>
   </g>
   <g id="line2d_71">
    <path clip-path="url(#p65c7d4cc3f)" style="fill: none; stroke: #424242; stroke-width: 6"/>
   </g>
   <g id="line2d_72">
    <path clip-path="url(#p65c7d4cc3f)" style="fill: none; stroke: #424242; stroke-width: 6"/>
   </g>
   <g id="line2d_73">
    <path clip-path="url(#p65c7d4cc3f)" style="fill: none; stroke: #424242; stroke-width: 6"/>
   </g>
   <g id="line2d_74">
    <path clip-path="url(#p65c7d4cc3f)" style="fill: none; stroke: #424242; stroke-width: 6"/>
   </g>
   <g id="patch_28">
    <path d="M 56.590938 781.92 
L 56.590938 477.641739 
" style="fill: none; stroke: #f0f0f0; stroke-width: 3; stroke-linejoin: miter; stroke-linecap: square"/>
   </g>
   <g id="patch_29">
    <path d="M 455.209119 781.92 
L 455.209119 477.641739 
" style="fill: none; stroke: #f0f0f0; stroke-width: 3; stroke-linejoin: miter; stroke-linecap: square"/>
   </g>
   <g id="patch_30">
    <path d="M 56.590938 781.92 
L 455.209119 781.92 
" style="fill: none; stroke: #f0f0f0; stroke-width: 3; stroke-linejoin: miter; stroke-linecap: square"/>
   </g>
   <g id="patch_31">
    <path d="M 56.590938 477.641739 
L 455.209119 477.641739 
" style="fill: none; stroke: #f0f0f0; stroke-width: 3; stroke-linejoin: miter; stroke-linecap: square"/>
   </g>
   <g id="text_40">
    <!-- Based on : Betweenness centrality -->
    <g transform="translate(117.142528 471.641739) scale(0.16 -0.16)">
     <defs>
      <path id="DejaVuSans-77" d="M 269 3500 
L 844 3500 
L 1563 769 
L 2278 3500 
L 2956 3500 
L 3675 769 
L 4391 3500 
L 4966 3500 
L 4050 0 
L 3372 0 
L 2619 2869 
L 1863 0 
L 1184 0 
L 269 3500 
z
" transform="scale(0.015625)"/>
     </defs>
     <use xlink:href="#DejaVuSans-42"/>
     <use xlink:href="#DejaVuSans-61" transform="translate(68.603516 0)"/>
     <use xlink:href="#DejaVuSans-73" transform="translate(129.882812 0)"/>
     <use xlink:href="#DejaVuSans-65" transform="translate(181.982422 0)"/>
     <use xlink:href="#DejaVuSans-64" transform="translate(243.505859 0)"/>
     <use xlink:href="#DejaVuSans-20" transform="translate(306.982422 0)"/>
     <use xlink:href="#DejaVuSans-6f" transform="translate(338.769531 0)"/>
     <use xlink:href="#DejaVuSans-6e" transform="translate(399.951172 0)"/>
     <use xlink:href="#DejaVuSans-20" transform="translate(463.330078 0)"/>
     <use xlink:href="#DejaVuSans-3a" transform="translate(495.117188 0)"/>
     <use xlink:href="#DejaVuSans-20" transform="translate(528.808594 0)"/>
     <use xlink:href="#DejaVuSans-42" transform="translate(560.595703 0)"/>
     <use xlink:href="#DejaVuSans-65" transform="translate(629.199219 0)"/>
     <use xlink:href="#DejaVuSans-74" transform="translate(690.722656 0)"/>
     <use xlink:href="#DejaVuSans-77" transform="translate(729.931641 0)"/>
     <use xlink:href="#DejaVuSans-65" transform="translate(811.71875 0)"/>
     <use xlink:href="#DejaVuSans-65" transform="translate(873.242188 0)"/>
     <use xlink:href="#DejaVuSans-6e" transform="translate(934.765625 0)"/>
     <use xlink:href="#DejaVuSans-6e" transform="translate(998.144531 0)"/>
     <use xlink:href="#DejaVuSans-65" transform="translate(1061.523438 0)"/>
     <use xlink:href="#DejaVuSans-73" transform="translate(1123.046875 0)"/>
     <use xlink:href="#DejaVuSans-73" transform="translate(1175.146484 0)"/>
     <use xlink:href="#DejaVuSans-20" transform="translate(1227.246094 0)"/>
     <use xlink:href="#DejaVuSans-63" transform="translate(1259.033203 0)"/>
     <use xlink:href="#DejaVuSans-65" transform="translate(1314.013672 0)"/>
     <use xlink:href="#DejaVuSans-6e" transform="translate(1375.537109 0)"/>
     <use xlink:href="#DejaVuSans-74" transform="translate(1438.916016 0)"/>
     <use xlink:href="#DejaVuSans-72" transform="translate(1478.125 0)"/>
     <use xlink:href="#DejaVuSans-61" transform="translate(1519.238281 0)"/>
     <use xlink:href="#DejaVuSans-6c" transform="translate(1580.517578 0)"/>
     <use xlink:href="#DejaVuSans-69" transform="translate(1608.300781 0)"/>
     <use xlink:href="#DejaVuSans-74" transform="translate(1636.083984 0)"/>
     <use xlink:href="#DejaVuSans-79" transform="translate(1675.292969 0)"/>
    </g>
   </g>
  </g>
  <g id="axes_4">
   <g id="patch_32">
    <path d="M 534.932756 781.92 
L 933.550937 781.92 
L 933.550937 477.641739 
L 534.932756 477.641739 
z
" style="fill: #f0f0f0"/>
   </g>
   <g id="matplotlib.axis_7">
    <g id="xtick_16">
     <g id="line2d_75"/>
     <g id="text_41">
      <!-- Muzan -->
      <g transform="translate(557.620885 799.893545) rotate(-10) scale(0.11 -0.11)">
       <use xlink:href="#DejaVuSans-4d"/>
       <use xlink:href="#DejaVuSans-75" transform="translate(86.279297 0)"/>
       <use xlink:href="#DejaVuSans-7a" transform="translate(149.658203 0)"/>
       <use xlink:href="#DejaVuSans-61" transform="translate(202.148438 0)"/>
       <use xlink:href="#DejaVuSans-6e" transform="translate(263.427734 0)"/>
      </g>
     </g>
    </g>
    <g id="xtick_17">
     <g id="line2d_76"/>
     <g id="text_42">
      <!-- Tanjiro -->
      <g transform="translate(637.450311 799.856238) rotate(-10) scale(0.11 -0.11)">
       <use xlink:href="#DejaVuSans-54"/>
       <use xlink:href="#DejaVuSans-61" transform="translate(44.583984 0)"/>
       <use xlink:href="#DejaVuSans-6e" transform="translate(105.863281 0)"/>
       <use xlink:href="#DejaVuSans-6a" transform="translate(169.242188 0)"/>
       <use xlink:href="#DejaVuSans-69" transform="translate(197.025391 0)"/>
       <use xlink:href="#DejaVuSans-72" transform="translate(224.808594 0)"/>
       <use xlink:href="#DejaVuSans-6f" transform="translate(263.671875 0)"/>
      </g>
     </g>
    </g>
    <g id="xtick_18">
     <g id="line2d_77"/>
     <g id="text_43">
      <!-- Akaza -->
      <g transform="translate(718.540753 799.374229) rotate(-10) scale(0.11 -0.11)">
       <use xlink:href="#DejaVuSans-41"/>
       <use xlink:href="#DejaVuSans-6b" transform="translate(68.408203 0)"/>
       <use xlink:href="#DejaVuSans-61" transform="translate(124.568359 0)"/>
       <use xlink:href="#DejaVuSans-7a" transform="translate(185.847656 0)"/>
       <use xlink:href="#DejaVuSans-61" transform="translate(238.337891 0)"/>
      </g>
     </g>
    </g>
    <g id="xtick_19">
     <g id="line2d_78"/>
     <g id="text_44">
      <!-- Giyu -->
      <g transform="translate(802.15238 798.003113) rotate(-10) scale(0.11 -0.11)">
       <use xlink:href="#DejaVuSans-47"/>
       <use xlink:href="#DejaVuSans-69" transform="translate(77.490234 0)"/>
       <use xlink:href="#DejaVuSans-79" transform="translate(105.273438 0)"/>
       <use xlink:href="#DejaVuSans-75" transform="translate(164.453125 0)"/>
      </g>
     </g>
    </g>
    <g id="xtick_20">
     <g id="line2d_79"/>
     <g id="text_45">
      <!-- Yushiro -->
      <g transform="translate(874.920119 800.456138) rotate(-10) scale(0.11 -0.11)">
       <use xlink:href="#DejaVuSans-59"/>
       <use xlink:href="#DejaVuSans-75" transform="translate(49.583984 0)"/>
       <use xlink:href="#DejaVuSans-73" transform="translate(112.962891 0)"/>
       <use xlink:href="#DejaVuSans-68" transform="translate(165.0625 0)"/>
       <use xlink:href="#DejaVuSans-69" transform="translate(228.441406 0)"/>
       <use xlink:href="#DejaVuSans-72" transform="translate(256.224609 0)"/>
       <use xlink:href="#DejaVuSans-6f" transform="translate(295.087891 0)"/>
      </g>
     </g>
    </g>
   </g>
   <g id="matplotlib.axis_8">
    <g id="ytick_23">
     <g id="line2d_80">
      <path d="M 534.932756 781.92 
L 933.550937 781.92 
" clip-path="url(#p37d08d197f)" style="fill: none; stroke: #cbcbcb"/>
     </g>
     <g id="line2d_81"/>
     <g id="text_46">
      <!-- 0.00 -->
      <g transform="translate(506.940568 786.099141) scale(0.11 -0.11)">
       <use xlink:href="#DejaVuSans-30"/>
       <use xlink:href="#DejaVuSans-2e" transform="translate(63.623047 0)"/>
       <use xlink:href="#DejaVuSans-30" transform="translate(95.410156 0)"/>
       <use xlink:href="#DejaVuSans-30" transform="translate(159.033203 0)"/>
      </g>
     </g>
    </g>
    <g id="ytick_24">
     <g id="line2d_82">
      <path d="M 534.932756 741.761795 
L 933.550937 741.761795 
" clip-path="url(#p37d08d197f)" style="fill: none; stroke: #cbcbcb"/>
     </g>
     <g id="line2d_83"/>
     <g id="text_47">
      <!-- 0.05 -->
      <g transform="translate(506.940568 745.940936) scale(0.11 -0.11)">
       <use xlink:href="#DejaVuSans-30"/>
       <use xlink:href="#DejaVuSans-2e" transform="translate(63.623047 0)"/>
       <use xlink:href="#DejaVuSans-30" transform="translate(95.410156 0)"/>
       <use xlink:href="#DejaVuSans-35" transform="translate(159.033203 0)"/>
      </g>
     </g>
    </g>
    <g id="ytick_25">
     <g id="line2d_84">
      <path d="M 534.932756 701.603591 
L 933.550937 701.603591 
" clip-path="url(#p37d08d197f)" style="fill: none; stroke: #cbcbcb"/>
     </g>
     <g id="line2d_85"/>
     <g id="text_48">
      <!-- 0.10 -->
      <g transform="translate(506.940568 705.782732) scale(0.11 -0.11)">
       <use xlink:href="#DejaVuSans-30"/>
       <use xlink:href="#DejaVuSans-2e" transform="translate(63.623047 0)"/>
       <use xlink:href="#DejaVuSans-31" transform="translate(95.410156 0)"/>
       <use xlink:href="#DejaVuSans-30" transform="translate(159.033203 0)"/>
      </g>
     </g>
    </g>
    <g id="ytick_26">
     <g id="line2d_86">
      <path d="M 534.932756 661.445386 
L 933.550937 661.445386 
" clip-path="url(#p37d08d197f)" style="fill: none; stroke: #cbcbcb"/>
     </g>
     <g id="line2d_87"/>
     <g id="text_49">
      <!-- 0.15 -->
      <g transform="translate(506.940568 665.624527) scale(0.11 -0.11)">
       <use xlink:href="#DejaVuSans-30"/>
       <use xlink:href="#DejaVuSans-2e" transform="translate(63.623047 0)"/>
       <use xlink:href="#DejaVuSans-31" transform="translate(95.410156 0)"/>
       <use xlink:href="#DejaVuSans-35" transform="translate(159.033203 0)"/>
      </g>
     </g>
    </g>
    <g id="ytick_27">
     <g id="line2d_88">
      <path d="M 534.932756 621.287182 
L 933.550937 621.287182 
" clip-path="url(#p37d08d197f)" style="fill: none; stroke: #cbcbcb"/>
     </g>
     <g id="line2d_89"/>
     <g id="text_50">
      <!-- 0.20 -->
      <g transform="translate(506.940568 625.466322) scale(0.11 -0.11)">
       <use xlink:href="#DejaVuSans-30"/>
       <use xlink:href="#DejaVuSans-2e" transform="translate(63.623047 0)"/>
       <use xlink:href="#DejaVuSans-32" transform="translate(95.410156 0)"/>
       <use xlink:href="#DejaVuSans-30" transform="translate(159.033203 0)"/>
      </g>
     </g>
    </g>
    <g id="ytick_28">
     <g id="line2d_90">
      <path d="M 534.932756 581.128977 
L 933.550937 581.128977 
" clip-path="url(#p37d08d197f)" style="fill: none; stroke: #cbcbcb"/>
     </g>
     <g id="line2d_91"/>
     <g id="text_51">
      <!-- 0.25 -->
      <g transform="translate(506.940568 585.308118) scale(0.11 -0.11)">
       <use xlink:href="#DejaVuSans-30"/>
       <use xlink:href="#DejaVuSans-2e" transform="translate(63.623047 0)"/>
       <use xlink:href="#DejaVuSans-32" transform="translate(95.410156 0)"/>
       <use xlink:href="#DejaVuSans-35" transform="translate(159.033203 0)"/>
      </g>
     </g>
    </g>
    <g id="ytick_29">
     <g id="line2d_92">
      <path d="M 534.932756 540.970773 
L 933.550937 540.970773 
" clip-path="url(#p37d08d197f)" style="fill: none; stroke: #cbcbcb"/>
     </g>
     <g id="line2d_93"/>
     <g id="text_52">
      <!-- 0.30 -->
      <g transform="translate(506.940568 545.149913) scale(0.11 -0.11)">
       <use xlink:href="#DejaVuSans-30"/>
       <use xlink:href="#DejaVuSans-2e" transform="translate(63.623047 0)"/>
       <use xlink:href="#DejaVuSans-33" transform="translate(95.410156 0)"/>
       <use xlink:href="#DejaVuSans-30" transform="translate(159.033203 0)"/>
      </g>
     </g>
    </g>
    <g id="ytick_30">
     <g id="line2d_94">
      <path d="M 534.932756 500.812568 
L 933.550937 500.812568 
" clip-path="url(#p37d08d197f)" style="fill: none; stroke: #cbcbcb"/>
     </g>
     <g id="line2d_95"/>
     <g id="text_53">
      <!-- 0.35 -->
      <g transform="translate(506.940568 504.991709) scale(0.11 -0.11)">
       <use xlink:href="#DejaVuSans-30"/>
       <use xlink:href="#DejaVuSans-2e" transform="translate(63.623047 0)"/>
       <use xlink:href="#DejaVuSans-33" transform="translate(95.410156 0)"/>
       <use xlink:href="#DejaVuSans-35" transform="translate(159.033203 0)"/>
      </g>
     </g>
    </g>
   </g>
   <g id="patch_33">
    <path d="M 542.905119 781.92 
L 606.684028 781.92 
L 606.684028 492.13118 
L 542.905119 492.13118 
z
" clip-path="url(#p37d08d197f)" style="fill: #1b86ba"/>
   </g>
   <g id="patch_34">
    <path d="M 622.628756 781.92 
L 686.407665 781.92 
L 686.407665 505.783699 
L 622.628756 505.783699 
z
" clip-path="url(#p37d08d197f)" style="fill: #1b86ba"/>
   </g>
   <g id="patch_35">
    <path d="M 702.352392 781.92 
L 766.131301 781.92 
L 766.131301 588.293117 
L 702.352392 588.293117 
z
" clip-path="url(#p37d08d197f)" style="fill: #1b86ba"/>
   </g>
   <g id="patch_36">
    <path d="M 782.076028 781.92 
L 845.854938 781.92 
L 845.854938 600.306911 
L 782.076028 600.306911 
z
" clip-path="url(#p37d08d197f)" style="fill: #1b86ba"/>
   </g>
   <g id="patch_37">
    <path d="M 861.799665 781.92 
L 925.578574 781.92 
L 925.578574 601.664099 
L 861.799665 601.664099 
z
" clip-path="url(#p37d08d197f)" style="fill: #1b86ba"/>
   </g>
   <g id="line2d_96">
    <path clip-path="url(#p37d08d197f)" style="fill: none; stroke: #424242; stroke-width: 6"/>
   </g>
   <g id="line2d_97">
    <path clip-path="url(#p37d08d197f)" style="fill: none; stroke: #424242; stroke-width: 6"/>
   </g>
   <g id="line2d_98">
    <path clip-path="url(#p37d08d197f)" style="fill: none; stroke: #424242; stroke-width: 6"/>
   </g>
   <g id="line2d_99">
    <path clip-path="url(#p37d08d197f)" style="fill: none; stroke: #424242; stroke-width: 6"/>
   </g>
   <g id="line2d_100">
    <path clip-path="url(#p37d08d197f)" style="fill: none; stroke: #424242; stroke-width: 6"/>
   </g>
   <g id="patch_38">
    <path d="M 534.932756 781.92 
L 534.932756 477.641739 
" style="fill: none; stroke: #f0f0f0; stroke-width: 3; stroke-linejoin: miter; stroke-linecap: square"/>
   </g>
   <g id="patch_39">
    <path d="M 933.550937 781.92 
L 933.550937 477.641739 
" style="fill: none; stroke: #f0f0f0; stroke-width: 3; stroke-linejoin: miter; stroke-linecap: square"/>
   </g>
   <g id="patch_40">
    <path d="M 534.932756 781.92 
L 933.550937 781.92 
" style="fill: none; stroke: #f0f0f0; stroke-width: 3; stroke-linejoin: miter; stroke-linecap: square"/>
   </g>
   <g id="patch_41">
    <path d="M 534.932756 477.641739 
L 933.550937 477.641739 
" style="fill: none; stroke: #f0f0f0; stroke-width: 3; stroke-linejoin: miter; stroke-linecap: square"/>
   </g>
   <g id="text_54">
    <!-- Based on : EigenVector centrality -->
    <g transform="translate(600.974347 471.641739) scale(0.16 -0.16)">
     <defs>
      <path id="DejaVuSans-45" d="M 628 4666 
L 3578 4666 
L 3578 4134 
L 1259 4134 
L 1259 2753 
L 3481 2753 
L 3481 2222 
L 1259 2222 
L 1259 531 
L 3634 531 
L 3634 0 
L 628 0 
L 628 4666 
z
" transform="scale(0.015625)"/>
      <path id="DejaVuSans-56" d="M 1831 0 
L 50 4666 
L 709 4666 
L 2188 738 
L 3669 4666 
L 4325 4666 
L 2547 0 
L 1831 0 
z
" transform="scale(0.015625)"/>
     </defs>
     <use xlink:href="#DejaVuSans-42"/>
     <use xlink:href="#DejaVuSans-61" transform="translate(68.603516 0)"/>
     <use xlink:href="#DejaVuSans-73" transform="translate(129.882812 0)"/>
     <use xlink:href="#DejaVuSans-65" transform="translate(181.982422 0)"/>
     <use xlink:href="#DejaVuSans-64" transform="translate(243.505859 0)"/>
     <use xlink:href="#DejaVuSans-20" transform="translate(306.982422 0)"/>
     <use xlink:href="#DejaVuSans-6f" transform="translate(338.769531 0)"/>
     <use xlink:href="#DejaVuSans-6e" transform="translate(399.951172 0)"/>
     <use xlink:href="#DejaVuSans-20" transform="translate(463.330078 0)"/>
     <use xlink:href="#DejaVuSans-3a" transform="translate(495.117188 0)"/>
     <use xlink:href="#DejaVuSans-20" transform="translate(528.808594 0)"/>
     <use xlink:href="#DejaVuSans-45" transform="translate(560.595703 0)"/>
     <use xlink:href="#DejaVuSans-69" transform="translate(623.779297 0)"/>
     <use xlink:href="#DejaVuSans-67" transform="translate(651.5625 0)"/>
     <use xlink:href="#DejaVuSans-65" transform="translate(715.039062 0)"/>
     <use xlink:href="#DejaVuSans-6e" transform="translate(776.5625 0)"/>
     <use xlink:href="#DejaVuSans-56" transform="translate(839.941406 0)"/>
     <use xlink:href="#DejaVuSans-65" transform="translate(900.599609 0)"/>
     <use xlink:href="#DejaVuSans-63" transform="translate(962.123047 0)"/>
     <use xlink:href="#DejaVuSans-74" transform="translate(1017.103516 0)"/>
     <use xlink:href="#DejaVuSans-6f" transform="translate(1056.3125 0)"/>
     <use xlink:href="#DejaVuSans-72" transform="translate(1117.494141 0)"/>
     <use xlink:href="#DejaVuSans-20" transform="translate(1158.607422 0)"/>
     <use xlink:href="#DejaVuSans-63" transform="translate(1190.394531 0)"/>
     <use xlink:href="#DejaVuSans-65" transform="translate(1245.375 0)"/>
     <use xlink:href="#DejaVuSans-6e" transform="translate(1306.898438 0)"/>
     <use xlink:href="#DejaVuSans-74" transform="translate(1370.277344 0)"/>
     <use xlink:href="#DejaVuSans-72" transform="translate(1409.486328 0)"/>
     <use xlink:href="#DejaVuSans-61" transform="translate(1450.599609 0)"/>
     <use xlink:href="#DejaVuSans-6c" transform="translate(1511.878906 0)"/>
     <use xlink:href="#DejaVuSans-69" transform="translate(1539.662109 0)"/>
     <use xlink:href="#DejaVuSans-74" transform="translate(1567.445312 0)"/>
     <use xlink:href="#DejaVuSans-79" transform="translate(1606.654297 0)"/>
    </g>
   </g>
  </g>
  <g id="text_55">
   <!-- Infinity Castle Arc : Character importance -->
   <g transform="translate(293.019531 35.277187) scale(0.18 -0.18)">
    <defs>
     <path id="DejaVuSans-49" d="M 628 4666 
L 1259 4666 
L 1259 0 
L 628 0 
L 628 4666 
z
" transform="scale(0.015625)"/>
     <path id="DejaVuSans-66" d="M 2375 4863 
L 2375 4384 
L 1825 4384 
Q 1516 4384 1395 4259 
Q 1275 4134 1275 3809 
L 1275 3500 
L 2222 3500 
L 2222 3053 
L 1275 3053 
L 1275 0 
L 697 0 
L 697 3053 
L 147 3053 
L 147 3500 
L 697 3500 
L 697 3744 
Q 697 4328 969 4595 
Q 1241 4863 1831 4863 
L 2375 4863 
z
" transform="scale(0.015625)"/>
     <path id="DejaVuSans-70" d="M 1159 525 
L 1159 -1331 
L 581 -1331 
L 581 3500 
L 1159 3500 
L 1159 2969 
Q 1341 3281 1617 3432 
Q 1894 3584 2278 3584 
Q 2916 3584 3314 3078 
Q 3713 2572 3713 1747 
Q 3713 922 3314 415 
Q 2916 -91 2278 -91 
Q 1894 -91 1617 61 
Q 1341 213 1159 525 
z
M 3116 1747 
Q 3116 2381 2855 2742 
Q 2594 3103 2138 3103 
Q 1681 3103 1420 2742 
Q 1159 2381 1159 1747 
Q 1159 1113 1420 752 
Q 1681 391 2138 391 
Q 2594 391 2855 752 
Q 3116 1113 3116 1747 
z
" transform="scale(0.015625)"/>
    </defs>
    <use xlink:href="#DejaVuSans-49"/>
    <use xlink:href="#DejaVuSans-6e" transform="translate(29.492188 0)"/>
    <use xlink:href="#DejaVuSans-66" transform="translate(92.871094 0)"/>
    <use xlink:href="#DejaVuSans-69" transform="translate(128.076172 0)"/>
    <use xlink:href="#DejaVuSans-6e" transform="translate(155.859375 0)"/>
    <use xlink:href="#DejaVuSans-69" transform="translate(219.238281 0)"/>
    <use xlink:href="#DejaVuSans-74" transform="translate(247.021484 0)"/>
    <use xlink:href="#DejaVuSans-79" transform="translate(286.230469 0)"/>
    <use xlink:href="#DejaVuSans-20" transform="translate(345.410156 0)"/>
    <use xlink:href="#DejaVuSans-43" transform="translate(377.197266 0)"/>
    <use xlink:href="#DejaVuSans-61" transform="translate(447.021484 0)"/>
    <use xlink:href="#DejaVuSans-73" transform="translate(508.300781 0)"/>
    <use xlink:href="#DejaVuSans-74" transform="translate(560.400391 0)"/>
    <use xlink:href="#DejaVuSans-6c" transform="translate(599.609375 0)"/>
    <use xlink:href="#DejaVuSans-65" transform="translate(627.392578 0)"/>
    <use xlink:href="#DejaVuSans-20" transform="translate(688.916016 0)"/>
    <use xlink:href="#DejaVuSans-41" transform="translate(720.703125 0)"/>
    <use xlink:href="#DejaVuSans-72" transform="translate(789.111328 0)"/>
    <use xlink:href="#DejaVuSans-63" transform="translate(827.974609 0)"/>
    <use xlink:href="#DejaVuSans-20" transform="translate(882.955078 0)"/>
    <use xlink:href="#DejaVuSans-3a" transform="translate(914.742188 0)"/>
    <use xlink:href="#DejaVuSans-20" transform="translate(948.433594 0)"/>
    <use xlink:href="#DejaVuSans-43" transform="translate(980.220703 0)"/>
    <use xlink:href="#DejaVuSans-68" transform="translate(1050.044922 0)"/>
    <use xlink:href="#DejaVuSans-61" transform="translate(1113.423828 0)"/>
    <use xlink:href="#DejaVuSans-72" transform="translate(1174.703125 0)"/>
    <use xlink:href="#DejaVuSans-61" transform="translate(1215.816406 0)"/>
    <use xlink:href="#DejaVuSans-63" transform="translate(1277.095703 0)"/>
    <use xlink:href="#DejaVuSans-74" transform="translate(1332.076172 0)"/>
    <use xlink:href="#DejaVuSans-65" transform="translate(1371.285156 0)"/>
    <use xlink:href="#DejaVuSans-72" transform="translate(1432.808594 0)"/>
    <use xlink:href="#DejaVuSans-20" transform="translate(1473.921875 0)"/>
    <use xlink:href="#DejaVuSans-69" transform="translate(1505.708984 0)"/>
    <use xlink:href="#DejaVuSans-6d" transform="translate(1533.492188 0)"/>
    <use xlink:href="#DejaVuSans-70" transform="translate(1630.904297 0)"/>
    <use xlink:href="#DejaVuSans-6f" transform="translate(1694.380859 0)"/>
    <use xlink:href="#DejaVuSans-72" transform="translate(1755.5625 0)"/>
    <use xlink:href="#DejaVuSans-74" transform="translate(1796.675781 0)"/>
    <use xlink:href="#DejaVuSans-61" transform="translate(1835.884766 0)"/>
    <use xlink:href="#DejaVuSans-6e" transform="translate(1897.164062 0)"/>
    <use xlink:href="#DejaVuSans-63" transform="translate(1960.542969 0)"/>
    <use xlink:href="#DejaVuSans-65" transform="translate(2015.523438 0)"/>
   </g>
  </g>
 </g>
 <defs>
  <clipPath id="p7050efae88">
   <rect x="56.590938" y="82.08" width="398.618182" height="304.278261"/>
  </clipPath>
  <clipPath id="paed7ba69ce">
   <rect x="534.932756" y="82.08" width="398.618182" height="304.278261"/>
  </clipPath>
  <clipPath id="p65c7d4cc3f">
   <rect x="56.590938" y="477.641739" width="398.618182" height="304.278261"/>
  </clipPath>
  <clipPath id="p37d08d197f">
   <rect x="534.932756" y="477.641739" width="398.618182" height="304.278261"/>
  </clipPath>
 </defs>
</svg>
